<svg width="1600" height="980" viewBox="0 0 1600 980" fill="none" xmlns="http://www.w3.org/2000/svg">
  <rect width="1600" height="980" fill="#E2E8F0"/>
  <rect x="48" y="40" width="1504" height="900" rx="36" fill="#F8FAFC" stroke="#CBD5E1" stroke-width="2"/>
  <rect x="48" y="40" width="1504" height="92" rx="36" fill="#FFFFFF"/>
  <path d="M48 96C48 65.0721 73.0721 40 104 40H1496C1526.93 40 1552 65.0721 1552 96V132H48V96Z" fill="#FFFFFF"/>

  <text x="88" y="95" fill="#0F172A" font-size="34" font-weight="700" font-family="Inter, Arial, sans-serif">WorkWindow</text>
  <rect x="1090" y="66" width="132" height="40" rx="18" fill="#E2E8F0"/>
  <text x="1125" y="92" fill="#334155" font-size="18" font-weight="600" font-family="Inter, Arial, sans-serif">Local mode</text>
  <rect x="1240" y="60" width="116" height="48" rx="16" fill="#0F172A"/>
  <text x="1278" y="91" fill="#F8FAFC" font-size="18" font-weight="700" font-family="Inter, Arial, sans-serif">New Card</text>
  <rect x="1372" y="60" width="132" height="48" rx="16" fill="#FFFFFF" stroke="#CBD5E1" stroke-width="2"/>
  <text x="1404" y="91" fill="#334155" font-size="18" font-weight="700" font-family="Inter, Arial, sans-serif">Export JSON</text>

  <rect x="88" y="164" width="720" height="124" rx="24" fill="#FFFFFF" stroke="#CBD5E1" stroke-width="2"/>
  <text x="116" y="206" fill="#475569" font-size="18" font-weight="700" font-family="Inter, Arial, sans-serif" letter-spacing="2">PERFORMANCE</text>
  <rect x="116" y="224" width="152" height="12" rx="6" fill="#E2E8F0"/>
  <rect x="116" y="224" width="92" height="12" rx="6" fill="#0F172A"/>
  <text x="116" y="266" fill="#0F172A" font-size="26" font-weight="700" font-family="Inter, Arial, sans-serif">Burnup 62%</text>
  <text x="320" y="266" fill="#0F172A" font-size="26" font-weight="700" font-family="Inter, Arial, sans-serif">Plan coverage 78%</text>
  <text x="590" y="266" fill="#0F172A" font-size="26" font-weight="700" font-family="Inter, Arial, sans-serif">Velocity 11 pts</text>

  <rect x="88" y="316" width="720" height="92" rx="24" fill="#FFFFFF" stroke="#CBD5E1" stroke-width="2"/>
  <rect x="116" y="346" width="280" height="32" rx="14" fill="#F8FAFC" stroke="#CBD5E1" stroke-width="2"/>
  <text x="140" y="368" fill="#94A3B8" font-size="18" font-family="Inter, Arial, sans-serif">Search title or description...</text>
  <rect x="426" y="346" width="170" height="32" rx="14" fill="#F8FAFC" stroke="#CBD5E1" stroke-width="2"/>
  <text x="454" y="368" fill="#475569" font-size="18" font-family="Inter, Arial, sans-serif">Sort: Due date</text>
  <rect x="622" y="346" width="78" height="32" rx="14" fill="#0F172A"/>
  <text x="642" y="368" fill="#F8FAFC" font-size="17" font-weight="700" font-family="Inter, Arial, sans-serif">Backlog</text>
  <rect x="708" y="346" width="102" height="32" rx="14" fill="#FFFFFF" stroke="#CBD5E1" stroke-width="2"/>
  <text x="729" y="368" fill="#475569" font-size="17" font-family="Inter, Arial, sans-serif">In Progress</text>

  <rect x="88" y="436" width="170" height="420" rx="26" fill="#E2E8F0"/>
  <rect x="274" y="436" width="170" height="420" rx="26" fill="#E2E8F0"/>
  <rect x="460" y="436" width="170" height="420" rx="26" fill="#E2E8F0"/>
  <rect x="646" y="436" width="162" height="420" rx="26" fill="#E2E8F0"/>
  <text x="116" y="480" fill="#334155" font-size="18" font-weight="700" font-family="Inter, Arial, sans-serif" letter-spacing="2">BACKLOG</text>
  <text x="302" y="480" fill="#334155" font-size="18" font-weight="700" font-family="Inter, Arial, sans-serif" letter-spacing="2">IN PROGRESS</text>
  <text x="500" y="480" fill="#334155" font-size="18" font-weight="700" font-family="Inter, Arial, sans-serif" letter-spacing="2">BLOCKED</text>
  <text x="690" y="480" fill="#334155" font-size="18" font-weight="700" font-family="Inter, Arial, sans-serif" letter-spacing="2">DONE</text>

  <rect x="104" y="500" width="138" height="126" rx="18" fill="#FFFFFF"/>
  <text x="120" y="536" fill="#0F172A" font-size="20" font-weight="700" font-family="Inter, Arial, sans-serif">Polish mode chooser</text>
  <text x="120" y="570" fill="#64748B" font-size="16" font-family="Inter, Arial, sans-serif">0 / 3 pts complete</text>
  <text x="120" y="598" fill="#64748B" font-size="16" font-family="Inter, Arial, sans-serif">Due 2026-04-18</text>
  <rect x="120" y="612" width="70" height="24" rx="10" fill="#FEF3C7"/>
  <text x="139" y="629" fill="#92400E" font-size="14" font-weight="700" font-family="Inter, Arial, sans-serif">Depends on 1</text>

  <rect x="290" y="500" width="138" height="126" rx="18" fill="#FFFFFF"/>
  <text x="306" y="536" fill="#0F172A" font-size="20" font-weight="700" font-family="Inter, Arial, sans-serif">Cloud sync copy</text>
  <text x="306" y="570" fill="#64748B" font-size="16" font-family="Inter, Arial, sans-serif">2 / 4 pts complete</text>
  <text x="306" y="598" fill="#64748B" font-size="16" font-family="Inter, Arial, sans-serif">Plan to 2026-04-11</text>
  <rect x="306" y="612" width="60" height="24" rx="10" fill="#DBEAFE"/>
  <text x="324" y="629" fill="#1D4ED8" font-size="14" font-weight="700" font-family="Inter, Arial, sans-serif">Chain 2</text>

  <rect x="476" y="500" width="138" height="126" rx="18" fill="#FFFFFF"/>
  <text x="492" y="536" fill="#0F172A" font-size="20" font-weight="700" font-family="Inter, Arial, sans-serif">App screenshots</text>
  <text x="492" y="570" fill="#64748B" font-size="16" font-family="Inter, Arial, sans-serif">1 / 2 pts complete</text>
  <text x="492" y="598" fill="#64748B" font-size="16" font-family="Inter, Arial, sans-serif">Short 1pt before demo</text>
  <rect x="492" y="612" width="72" height="24" rx="10" fill="#FED7AA"/>
  <text x="515" y="629" fill="#C2410C" font-size="14" font-weight="700" font-family="Inter, Arial, sans-serif">Short 1pt</text>

  <rect x="662" y="500" width="130" height="126" rx="18" fill="#FFFFFF"/>
  <text x="678" y="536" fill="#0F172A" font-size="20" font-weight="700" font-family="Inter, Arial, sans-serif">README refresh</text>
  <text x="678" y="570" fill="#64748B" font-size="16" font-family="Inter, Arial, sans-serif">5 / 5 pts complete</text>
  <text x="678" y="598" fill="#64748B" font-size="16" font-family="Inter, Arial, sans-serif">Export docs updated</text>

  <rect x="840" y="164" width="664" height="692" rx="28" fill="#FFFFFF" stroke="#CBD5E1" stroke-width="2"/>
  <text x="876" y="210" fill="#0F172A" font-size="26" font-weight="700" font-family="Inter, Arial, sans-serif">April 2026</text>
  <text x="876" y="246" fill="#64748B" font-size="17" font-family="Inter, Arial, sans-serif">Month calendar with planned work chips</text>

  <g fill="#94A3B8" font-size="16" font-family="Inter, Arial, sans-serif">
    <text x="900" y="292">Sun</text>
    <text x="986" y="292">Mon</text>
    <text x="1074" y="292">Tue</text>
    <text x="1162" y="292">Wed</text>
    <text x="1250" y="292">Thu</text>
    <text x="1338" y="292">Fri</text>
    <text x="1426" y="292">Sat</text>
  </g>

  <g stroke="#E2E8F0" stroke-width="2">
    <rect x="876" y="312" width="88" height="88" rx="16" fill="#F8FAFC"/>
    <rect x="968" y="312" width="88" height="88" rx="16" fill="#F8FAFC"/>
    <rect x="1060" y="312" width="88" height="88" rx="16" fill="#F8FAFC"/>
    <rect x="1152" y="312" width="88" height="88" rx="16" fill="#F8FAFC"/>
    <rect x="1244" y="312" width="88" height="88" rx="16" fill="#F8FAFC"/>
    <rect x="1336" y="312" width="88" height="88" rx="16" fill="#F8FAFC"/>
    <rect x="1428" y="312" width="60" height="88" rx="16" fill="#F8FAFC"/>
    <rect x="876" y="404" width="88" height="88" rx="16" fill="#F8FAFC"/>
    <rect x="968" y="404" width="88" height="88" rx="16" fill="#F8FAFC"/>
    <rect x="1060" y="404" width="88" height="88" rx="16" fill="#E0F2FE"/>
    <rect x="1152" y="404" width="88" height="88" rx="16" fill="#F8FAFC"/>
    <rect x="1244" y="404" width="88" height="88" rx="16" fill="#F8FAFC"/>
    <rect x="1336" y="404" width="88" height="88" rx="16" fill="#F8FAFC"/>
    <rect x="1428" y="404" width="60" height="88" rx="16" fill="#F8FAFC"/>
    <rect x="876" y="496" width="88" height="88" rx="16" fill="#F8FAFC"/>
    <rect x="968" y="496" width="88" height="88" rx="16" fill="#F8FAFC"/>
    <rect x="1060" y="496" width="88" height="88" rx="16" fill="#F8FAFC"/>
    <rect x="1152" y="496" width="88" height="88" rx="16" fill="#F8FAFC"/>
    <rect x="1244" y="496" width="88" height="88" rx="16" fill="#F8FAFC"/>
    <rect x="1336" y="496" width="88" height="88" rx="16" fill="#F8FAFC"/>
    <rect x="1428" y="496" width="60" height="88" rx="16" fill="#F8FAFC"/>
  </g>

  <g fill="#334155" font-size="18" font-family="Inter, Arial, sans-serif" font-weight="700">
    <text x="1092" y="438">11</text>
    <text x="1268" y="438">13</text>
    <text x="900" y="530">20</text>
  </g>

  <rect x="1072" y="444" width="64" height="18" rx="9" fill="#67E8F9"/>
  <text x="1088" y="457" fill="#083344" font-size="12" font-weight="700" font-family="Inter, Arial, sans-serif">2 pts</text>
  <rect x="1256" y="444" width="64" height="18" rx="9" fill="#A7F3D0"/>
  <text x="1272" y="457" fill="#064E3B" font-size="12" font-weight="700" font-family="Inter, Arial, sans-serif">1 pt</text>
  <rect x="900" y="536" width="64" height="18" rx="9" fill="#DBEAFE"/>
  <text x="918" y="549" fill="#1E3A8A" font-size="12" font-weight="700" font-family="Inter, Arial, sans-serif">Risk</text>

  <rect x="876" y="626" width="612" height="190" rx="24" fill="#F8FAFC" stroke="#E2E8F0" stroke-width="2"/>
  <text x="908" y="668" fill="#0F172A" font-size="22" font-weight="700" font-family="Inter, Arial, sans-serif">Selected day agenda</text>
  <text x="908" y="706" fill="#475569" font-size="18" font-family="Inter, Arial, sans-serif">April 11, 2026</text>
  <rect x="908" y="730" width="260" height="48" rx="16" fill="#FFFFFF" stroke="#CBD5E1" stroke-width="2"/>
  <text x="930" y="760" fill="#0F172A" font-size="18" font-weight="700" font-family="Inter, Arial, sans-serif">Cloud sync copy</text>
  <text x="1128" y="760" fill="#0891B2" font-size="16" font-family="Inter, Arial, sans-serif">2 pts</text>
  <rect x="1188" y="730" width="260" height="48" rx="16" fill="#FFFFFF" stroke="#CBD5E1" stroke-width="2"/>
  <text x="1210" y="760" fill="#0F172A" font-size="18" font-weight="700" font-family="Inter, Arial, sans-serif">README refresh</text>
  <text x="1404" y="760" fill="#0891B2" font-size="16" font-family="Inter, Arial, sans-serif">1 pt</text>
</svg>
